<svg xmlns="http://www.w3.org/2000/svg" xmlns:xlink="http://www.w3.org/1999/xlink" width="892" height="461.07"><rect width="892" height="461.07" rx="5" ry="5" class="a"/><svg y="0%" x="0%"><circle cx="20" cy="20" r="6" fill="#ff5f58"/><circle cx="40" cy="20" r="6" fill="#ffbd2e"/><circle cx="60" cy="20" r="6" fill="#18c132"/></svg><svg height="369.07" viewBox="0 0 82 36.907" width="820" x="31" xmlns="http://www.w3.org/2000/svg" xmlns:xlink="http://www.w3.org/1999/xlink" y="66"><style>@keyframes j{0%{transform:translateX(0)}6.9%{transform:translateX(-82px)}7.3%{transform:translateX(-164px)}7.8%{transform:translateX(-246px)}8.3%{transform:translateX(-328px)}8.7%{transform:translateX(-410px)}9.2%{transform:translateX(-492px)}9.6%{transform:translateX(-574px)}10.1%{transform:translateX(-656px)}10.6%{transform:translateX(-738px)}11%{transform:translateX(-820px)}11.5%{transform:translateX(-902px)}11.9%{transform:translateX(-984px)}12.4%{transform:translateX(-1066px)}12.8%{transform:translateX(-1148px)}13.3%{transform:translateX(-1230px)}13.8%{transform:translateX(-1312px)}14.2%{transform:translateX(-1394px)}14.7%{transform:translateX(-1476px)}15.1%{transform:translateX(-1558px)}15.6%{transform:translateX(-1640px)}16.1%{transform:translateX(-1722px)}16.5%{transform:translateX(-1804px)}17%{transform:translateX(-1886px)}17.4%{transform:translateX(-1968px)}17.9%{transform:translateX(-2050px)}18.3%{transform:translateX(-2132px)}18.8%{transform:translateX(-2214px)}19.3%{transform:translateX(-2296px)}24.4%{transform:translateX(-2378px)}27.9%{transform:translateX(-2460px)}28.6%{transform:translateX(-2542px)}29.2%{transform:translateX(-2624px)}47.6%{transform:translateX(-2706px)}48.1%{transform:translateX(-2788px)}48.5%{transform:translateX(-2870px)}49%{transform:translateX(-2952px)}49.4%{transform:translateX(-3034px)}49.9%{transform:translateX(-3116px)}50.3%{transform:translateX(-3198px)}50.8%{transform:translateX(-3280px)}51.3%{transform:translateX(-3362px)}56.4%{transform:translateX(-3444px)}59.9%{transform:translateX(-3526px)}60.6%{transform:translateX(-3608px)}61.2%{transform:translateX(-3690px)}61.9%{transform:translateX(-3772px)}62.6%{transform:translateX(-3854px)}63.3%{transform:translateX(-3936px)}to{transform:translateX(-4018px)}}.a{fill:#282d35}.f,.g{white-space:pre}.f{fill:#a8cc8c;font-weight:700}.g{fill:#b9c0cb}</style><g font-family="Monaco,Consolas,Menlo,'Bitstream Vera Sans Mono','Powerline Symbols',monospace" font-size="1.67"><defs><symbol id="1"><text y="1.67" class="f">$</text></symbol><symbol id="2"><text y="1.67" class="f">$</text><text x="2.004" y="1.67" class="g">n</text></symbol><symbol id="3"><text y="1.67" class="f">$</text><text x="2.004" y="1.67" class="g">np</text></symbol><symbol id="4"><text y="1.67" class="f">$</text><text x="2.004" y="1.67" class="g">npm</text></symbol><symbol id="5"><text y="1.67" class="f">$</text><text x="2.004" y="1.67" class="g">npm</text><text x="6.012" y="1.67" class="g">run</text></symbol><symbol id="6"><text y="1.67" class="f">$</text><text x="2.004" y="1.67" class="g">npm</text><text x="6.012" y="1.67" class="g">run</text><text x="10.02" y="1.67" class="g">banner</text></symbol><symbol id="7"><text y="1.67" class="f">$</text><text x="2.004" y="1.67" class="g">npm</text><text x="6.012" y="1.67" class="g">run</text><text x="10.02" y="1.67" class="g">banner</text><text x="17.034" y="1.67" class="g">--</text></symbol><symbol id="8"><text y="1.67" class="f">$</text><text x="2.004" y="1.67" class="g">npm</text><text x="6.012" y="1.67" class="g">run</text><text x="10.02" y="1.67" class="g">banner</text><text x="17.034" y="1.67" class="g">--</text><text x="20.04" y="1.67" class="g">wazuh-mcp</text></symbol><symbol id="9"><text y="1.67" class="g">A</text><text x="2.004" y="1.67" class="g">great</text><text x="8.016" y="1.67" class="g">horned</text><text x="15.03" y="1.67" class="g">owl</text><text x="19.038" y="1.67" class="g">analyst</text><text x="27.054" y="1.67" class="g">flagging</text><text x="36.072" y="1.67" class="g">one</text><text x="40.08" y="1.67" class="g">critical</text><text x="49.098" y="1.67" class="g">alert</text><text x="55.11" y="1.67" class="g">on</text><text x="58.116" y="1.67" class="g">a</text><text x="60.12" y="1.67" class="g">Wazuh</text><text x="66.132" y="1.67" class="g">SIEM</text></symbol><symbol id="10"><text y="1.67" class="g">dashboard:</text><text x="11.022" y="1.67" class="g">a</text><text x="13.026" y="1.67" class="g">table</text><text x="19.038" y="1.67" class="g">of</text><text x="22.044" y="1.67" class="g">alert</text><text x="28.056" y="1.67" class="g">rows</text><text x="33.066" y="1.67" class="g">with</text><text x="38.076" y="1.67" class="g">severity</text><text x="47.094" y="1.67" class="g">dots</text><text x="52.104" y="1.67" class="g">...</text><text x="57.114" y="1.67" class="g">[</text><text x="59.118" y="1.67" class="g">WAZUH-MCP</text><text x="69.138" y="1.67" class="g">·</text><text x="71.142" y="1.67" class="g">SIEM</text><text x="76.152" y="1.67" class="g">]</text></symbol><symbol id="11"><text y="1.67" class="g">(text-only</text><text x="11.022" y="1.67" class="g">prompt</text><text x="18.036" y="1.67" class="g">for</text><text x="22.044" y="1.67" class="g">gpt-image-2;</text><text x="35.07" y="1.67" class="g">anchors</text><text x="43.086" y="1.67" class="g">are</text><text x="47.094" y="1.67" class="g">human</text><text x="53.106" y="1.67" class="g">style</text><text x="59.118" y="1.67" class="g">targets,</text><text x="68.136" y="1.67" class="g">never</text><text x="74.148" y="1.67" class="g">inputs)</text></symbol><symbol id="12"><text y="1.67" class="f">$</text><text x="2.004" y="1.67" class="g">npm</text><text x="6.012" y="1.67" class="g">test</text></symbol><symbol id="13"><text y="1.67" class="g">ok</text><text x="4.008" y="1.67" class="g">banner/style.test.mjs</text><text x="33.066" y="1.67" class="g">palette,</text><text x="42.084" y="1.67" class="g">exclusions,</text><text x="54.108" y="1.67" class="g">anchors</text></symbol><symbol id="14"><text y="1.67" class="g">ok</text><text x="4.008" y="1.67" class="g">banner/briefs.test.mjs</text><text x="33.066" y="1.67" class="g">26</text><text x="36.072" y="1.67" class="g">briefs,</text><text x="44.088" y="1.67" class="g">valid</text><text x="50.1" y="1.67" class="g">anchors,</text><text x="59.118" y="1.67" class="g">kicker</text><text x="66.132" y="1.67" class="g">grammar</text></symbol><symbol id="15"><text y="1.67" class="g">ok</text><text x="4.008" y="1.67" class="g">banner/anchors.test.mjs</text><text x="33.066" y="1.67" class="g">frozen</text><text x="40.08" y="1.67" class="g">anchor</text><text x="47.094" y="1.67" class="g">checksums</text></symbol><symbol id="16"><text y="1.67" class="g">ok</text><text x="4.008" y="1.67" class="g">banner/build-prompt.test...</text><text x="33.066" y="1.67" class="g">prompt</text><text x="40.08" y="1.67" class="g">assembly</text><text x="49.098" y="1.67" class="g">+</text><text x="51.102" y="1.67" class="g">grammar</text></symbol><symbol id="17"><text y="1.67" class="g">ok</text><text x="4.008" y="1.67" class="g">banner/wiring.test.mjs</text><text x="33.066" y="1.67" class="g">scripts</text><text x="41.082" y="1.67" class="g">+</text><text x="43.086" y="1.67" class="g">ILLUSTRATION.md</text></symbol><symbol id="18"><text y="1.67" class="g">#</text><text x="2.004" y="1.67" class="g">tests</text><text x="8.016" y="1.67" class="g">21</text><text x="13.026" y="1.67" class="g">#</text><text x="15.03" y="1.67" class="g">pass</text><text x="20.04" y="1.67" class="g">21</text><text x="25.05" y="1.67" class="g">#</text><text x="27.054" y="1.67" class="g">fail</text><text x="32.064" y="1.67" class="g">0</text></symbol><symbol id="a"><path fill="transparent" d="M0 0h82v18H0z"/></symbol><symbol id="b"><path fill="#6f7683" d="M0 0h1.102v2.171H0z"/></symbol></defs><path class="a" d="M0 0h82v36.907H0z"/><g style="animation-duration:8.72s;animation-iteration-count:infinite;animation-name:j;animation-timing-function:steps(1,end)"><svg width="4100"><svg><use xlink:href="#a"/><use xlink:href="#b" x="-.004"/></svg><svg x="82"><use xlink:href="#a"/><use xlink:href="#b" x="1.996"/><use xlink:href="#1"/></svg><svg x="164"><use xlink:href="#a"/><use xlink:href="#b" x="2.996"/><use xlink:href="#2"/></svg><svg x="246"><use xlink:href="#a"/><use xlink:href="#b" x="3.996"/><use xlink:href="#3"/></svg><svg x="328"><use xlink:href="#a"/><use xlink:href="#b" x="4.996"/><use xlink:href="#4"/></svg><svg x="410"><use xlink:href="#a"/><use xlink:href="#b" x="5.996"/><use xlink:href="#4"/></svg><svg x="492"><use xlink:href="#a"/><use xlink:href="#b" x="6.996"/><text y="1.67" class="f">$</text><text x="2.004" y="1.67" class="g">npm</text><text x="6.012" y="1.67" class="g">r</text></svg><svg x="574"><use xlink:href="#a"/><use xlink:href="#b" x="7.996"/><text y="1.67" class="f">$</text><text x="2.004" y="1.67" class="g">npm</text><text x="6.012" y="1.67" class="g">ru</text></svg><svg x="656"><use xlink:href="#a"/><use xlink:href="#b" x="8.996"/><use xlink:href="#5"/></svg><svg x="738"><use xlink:href="#a"/><use xlink:href="#b" x="9.996"/><use xlink:href="#5"/></svg><svg x="820"><use xlink:href="#a"/><use xlink:href="#b" x="10.996"/><text y="1.67" class="f">$</text><text x="2.004" y="1.67" class="g">npm</text><text x="6.012" y="1.67" class="g">run</text><text x="10.02" y="1.67" class="g">b</text></svg><svg x="902"><use xlink:href="#a"/><use xlink:href="#b" x="11.996"/><text y="1.67" class="f">$</text><text x="2.004" y="1.67" class="g">npm</text><text x="6.012" y="1.67" class="g">run</text><text x="10.02" y="1.67" class="g">ba</text></svg><svg x="984"><use xlink:href="#a"/><use xlink:href="#b" x="12.996"/><text y="1.67" class="f">$</text><text x="2.004" y="1.67" class="g">npm</text><text x="6.012" y="1.67" class="g">run</text><text x="10.02" y="1.67" class="g">ban</text></svg><svg x="1066"><use xlink:href="#a"/><use xlink:href="#b" x="13.996"/><text y="1.67" class="f">$</text><text x="2.004" y="1.67" class="g">npm</text><text x="6.012" y="1.67" class="g">run</text><text x="10.02" y="1.67" class="g">bann</text></svg><svg x="1148"><use xlink:href="#a"/><use xlink:href="#b" x="14.996"/><text y="1.67" class="f">$</text><text x="2.004" y="1.67" class="g">npm</text><text x="6.012" y="1.67" class="g">run</text><text x="10.02" y="1.67" class="g">banne</text></svg><svg x="1230"><use xlink:href="#a"/><use xlink:href="#b" x="15.996"/><use xlink:href="#6"/></svg><svg x="1312"><use xlink:href="#a"/><use xlink:href="#b" x="16.996"/><use xlink:href="#6"/></svg><svg x="1394"><use xlink:href="#a"/><use xlink:href="#b" x="17.996"/><text y="1.67" class="f">$</text><text x="2.004" y="1.67" class="g">npm</text><text x="6.012" y="1.67" class="g">run</text><text x="10.02" y="1.67" class="g">banner</text><text x="17.034" y="1.67" class="g">-</text></svg><svg x="1476"><use xlink:href="#a"/><use xlink:href="#b" x="18.996"/><use xlink:href="#7"/></svg><svg x="1558"><use xlink:href="#a"/><use xlink:href="#b" x="19.996"/><use xlink:href="#7"/></svg><svg x="1640"><use xlink:href="#a"/><use xlink:href="#b" x="20.996"/><text y="1.67" class="f">$</text><text x="2.004" y="1.67" class="g">npm</text><text x="6.012" y="1.67" class="g">run</text><text x="10.02" y="1.67" class="g">banner</text><text x="17.034" y="1.67" class="g">--</text><text x="20.04" y="1.67" class="g">w</text></svg><svg x="1722"><use xlink:href="#a"/><use xlink:href="#b" x="21.996"/><text y="1.67" class="f">$</text><text x="2.004" y="1.67" class="g">npm</text><text x="6.012" y="1.67" class="g">run</text><text x="10.02" y="1.67" class="g">banner</text><text x="17.034" y="1.67" class="g">--</text><text x="20.04" y="1.67" class="g">wa</text></svg><svg x="1804"><use xlink:href="#a"/><use xlink:href="#b" x="22.996"/><text y="1.67" class="f">$</text><text x="2.004" y="1.67" class="g">npm</text><text x="6.012" y="1.67" class="g">run</text><text x="10.02" y="1.67" class="g">banner</text><text x="17.034" y="1.67" class="g">--</text><text x="20.04" y="1.67" class="g">waz</text></svg><svg x="1886"><use xlink:href="#a"/><use xlink:href="#b" x="23.996"/><text y="1.67" class="f">$</text><text x="2.004" y="1.67" class="g">npm</text><text x="6.012" y="1.67" class="g">run</text><text x="10.02" y="1.67" class="g">banner</text><text x="17.034" y="1.67" class="g">--</text><text x="20.04" y="1.67" class="g">wazu</text></svg><svg x="1968"><use xlink:href="#a"/><use xlink:href="#b" x="24.996"/><text y="1.67" class="f">$</text><text x="2.004" y="1.67" class="g">npm</text><text x="6.012" y="1.67" class="g">run</text><text x="10.02" y="1.67" class="g">banner</text><text x="17.034" y="1.67" class="g">--</text><text x="20.04" y="1.67" class="g">wazuh</text></svg><svg x="2050"><use xlink:href="#a"/><use xlink:href="#b" x="25.996"/><text y="1.67" class="f">$</text><text x="2.004" y="1.67" class="g">npm</text><text x="6.012" y="1.67" class="g">run</text><text x="10.02" y="1.67" class="g">banner</text><text x="17.034" y="1.67" class="g">--</text><text x="20.04" y="1.67" class="g">wazuh-</text></svg><svg x="2132"><use xlink:href="#a"/><use xlink:href="#b" x="26.996"/><text y="1.67" class="f">$</text><text x="2.004" y="1.67" class="g">npm</text><text x="6.012" y="1.67" class="g">run</text><text x="10.02" y="1.67" class="g">banner</text><text x="17.034" y="1.67" class="g">--</text><text x="20.04" y="1.67" class="g">wazuh-m</text></svg><svg x="2214"><use xlink:href="#a"/><use xlink:href="#b" x="27.996"/><text y="1.67" class="f">$</text><text x="2.004" y="1.67" class="g">npm</text><text x="6.012" y="1.67" class="g">run</text><text x="10.02" y="1.67" class="g">banner</text><text x="17.034" y="1.67" class="g">--</text><text x="20.04" y="1.67" class="g">wazuh-mc</text></svg><svg x="2296"><use xlink:href="#a"/><use xlink:href="#b" x="28.996"/><use xlink:href="#8"/></svg><svg x="2378"><use xlink:href="#a"/><use xlink:href="#b" x="-.004" y="2.146"/><use xlink:href="#8"/></svg><svg x="2460"><use xlink:href="#a"/><use xlink:href="#b" x="-.004" y="4.317"/><use xlink:href="#8"/><use xlink:href="#9" y="2.171"/></svg><svg x="2542"><use xlink:href="#a"/><use xlink:href="#b" x="-.004" y="6.488"/><use xlink:href="#8"/><use xlink:href="#9" y="2.171"/><use xlink:href="#10" y="4.342"/></svg><svg x="2624"><use xlink:href="#a"/><use xlink:href="#b" x="-.004" y="8.659"/><use xlink:href="#8"/><use xlink:href="#9" y="2.171"/><use xlink:href="#10" y="4.342"/><use xlink:href="#11" y="6.513"/></svg><svg x="2706"><use xlink:href="#a"/><use xlink:href="#b" x="1.996" y="8.659"/><use xlink:href="#8"/><use xlink:href="#9" y="2.171"/><use xlink:href="#10" y="4.342"/><use xlink:href="#11" y="6.513"/><use xlink:href="#1" y="8.684"/></svg><svg x="2788"><use xlink:href="#a"/><use xlink:href="#b" x="2.996" y="8.659"/><use xlink:href="#8"/><use xlink:href="#9" y="2.171"/><use xlink:href="#10" y="4.342"/><use xlink:href="#11" y="6.513"/><use xlink:href="#2" y="8.684"/></svg><svg x="2870"><use xlink:href="#a"/><use xlink:href="#b" x="3.996" y="8.659"/><use xlink:href="#8"/><use xlink:href="#9" y="2.171"/><use xlink:href="#10" y="4.342"/><use xlink:href="#11" y="6.513"/><use xlink:href="#3" y="8.684"/></svg><svg x="2952"><use xlink:href="#a"/><use xlink:href="#b" x="4.996" y="8.659"/><use xlink:href="#8"/><use xlink:href="#9" y="2.171"/><use xlink:href="#10" y="4.342"/><use xlink:href="#11" y="6.513"/><use xlink:href="#4" y="8.684"/></svg><svg x="3034"><use xlink:href="#a"/><use xlink:href="#b" x="5.996" y="8.659"/><use xlink:href="#8"/><use xlink:href="#9" y="2.171"/><use xlink:href="#10" y="4.342"/><use xlink:href="#11" y="6.513"/><use xlink:href="#4" y="8.684"/></svg><svg x="3116"><use xlink:href="#a"/><use xlink:href="#b" x="6.996" y="8.659"/><use xlink:href="#8"/><use xlink:href="#9" y="2.171"/><use xlink:href="#10" y="4.342"/><use xlink:href="#11" y="6.513"/><text y="10.354" class="f">$</text><text x="2.004" y="10.354" class="g">npm</text><text x="6.012" y="10.354" class="g">t</text></svg><svg x="3198"><use xlink:href="#a"/><use xlink:href="#b" x="7.996" y="8.659"/><use xlink:href="#8"/><use xlink:href="#9" y="2.171"/><use xlink:href="#10" y="4.342"/><use xlink:href="#11" y="6.513"/><text y="10.354" class="f">$</text><text x="2.004" y="10.354" class="g">npm</text><text x="6.012" y="10.354" class="g">te</text></svg><svg x="3280"><use xlink:href="#a"/><use xlink:href="#b" x="8.996" y="8.659"/><use xlink:href="#8"/><use xlink:href="#9" y="2.171"/><use xlink:href="#10" y="4.342"/><use xlink:href="#11" y="6.513"/><text y="10.354" class="f">$</text><text x="2.004" y="10.354" class="g">npm</text><text x="6.012" y="10.354" class="g">tes</text></svg><svg x="3362"><use xlink:href="#a"/><use xlink:href="#b" x="9.996" y="8.659"/><use xlink:href="#8"/><use xlink:href="#9" y="2.171"/><use xlink:href="#10" y="4.342"/><use xlink:href="#11" y="6.513"/><use xlink:href="#12" y="8.684"/></svg><svg x="3444"><use xlink:href="#a"/><use xlink:href="#b" x="-.004" y="10.83"/><use xlink:href="#8"/><use xlink:href="#9" y="2.171"/><use xlink:href="#10" y="4.342"/><use xlink:href="#11" y="6.513"/><use xlink:href="#12" y="8.684"/></svg><svg x="3526"><use xlink:href="#a"/><use xlink:href="#b" x="-.004" y="13.001"/><use xlink:href="#8"/><use xlink:href="#9" y="2.171"/><use xlink:href="#10" y="4.342"/><use xlink:href="#11" y="6.513"/><use xlink:href="#12" y="8.684"/><use xlink:href="#13" y="10.855"/></svg><svg x="3608"><use xlink:href="#a"/><use xlink:href="#b" x="-.004" y="15.172"/><use xlink:href="#8"/><use xlink:href="#9" y="2.171"/><use xlink:href="#10" y="4.342"/><use xlink:href="#11" y="6.513"/><use xlink:href="#12" y="8.684"/><use xlink:href="#13" y="10.855"/><use xlink:href="#14" y="13.026"/></svg><svg x="3690"><use xlink:href="#a"/><use xlink:href="#b" x="-.004" y="17.343"/><use xlink:href="#8"/><use xlink:href="#9" y="2.171"/><use xlink:href="#10" y="4.342"/><use xlink:href="#11" y="6.513"/><use xlink:href="#12" y="8.684"/><use xlink:href="#13" y="10.855"/><use xlink:href="#14" y="13.026"/><use xlink:href="#15" y="15.197"/></svg><svg x="3772"><use xlink:href="#a"/><use xlink:href="#b" x="-.004" y="19.514"/><use xlink:href="#8"/><use xlink:href="#9" y="2.171"/><use xlink:href="#10" y="4.342"/><use xlink:href="#11" y="6.513"/><use xlink:href="#12" y="8.684"/><use xlink:href="#13" y="10.855"/><use xlink:href="#14" y="13.026"/><use xlink:href="#15" y="15.197"/><use xlink:href="#16" y="17.368"/></svg><svg x="3854"><use xlink:href="#a"/><use xlink:href="#b" x="-.004" y="21.685"/><use xlink:href="#8"/><use xlink:href="#9" y="2.171"/><use xlink:href="#10" y="4.342"/><use xlink:href="#11" y="6.513"/><use xlink:href="#12" y="8.684"/><use xlink:href="#13" y="10.855"/><use xlink:href="#14" y="13.026"/><use xlink:href="#15" y="15.197"/><use xlink:href="#16" y="17.368"/><use xlink:href="#17" y="19.539"/></svg><svg x="3936"><use xlink:href="#a"/><use xlink:href="#b" x="-.004" y="23.856"/><use xlink:href="#8"/><use xlink:href="#9" y="2.171"/><use xlink:href="#10" y="4.342"/><use xlink:href="#11" y="6.513"/><use xlink:href="#12" y="8.684"/><use xlink:href="#13" y="10.855"/><use xlink:href="#14" y="13.026"/><use xlink:href="#15" y="15.197"/><use xlink:href="#16" y="17.368"/><use xlink:href="#17" y="19.539"/><use xlink:href="#18" y="21.71"/></svg><svg x="4018"><use xlink:href="#a"/><use xlink:href="#b" x="-.004" y="23.856"/><use xlink:href="#8"/><use xlink:href="#9" y="2.171"/><use xlink:href="#10" y="4.342"/><use xlink:href="#11" y="6.513"/><use xlink:href="#12" y="8.684"/><use xlink:href="#13" y="10.855"/><use xlink:href="#14" y="13.026"/><use xlink:href="#15" y="15.197"/><use xlink:href="#16" y="17.368"/><use xlink:href="#17" y="19.539"/><use xlink:href="#18" y="21.71"/></svg></svg></g></g></svg></svg>